<svg width="586" height="184" viewBox="0 0 586 184" fill="none" xmlns="http://www.w3.org/2000/svg">
<path d="M0 52.8366C0 39.4956 8.81001 27.7574 21.62 24.0308L100.12 1.19417C105.593 -0.398056 111.407 -0.398056 116.88 1.19417L195.38 24.0308C208.19 27.7574 217 39.4956 217 52.8366V153.756C217 170.325 203.569 183.756 187 183.756H30C13.4315 183.756 0 170.325 0 153.756V52.8366Z" fill="#40FFE1"/>
<path d="M147.496 115.16C146.486 115.16 145.668 115.979 145.668 116.988V129.458C145.668 137.355 139.266 143.756 131.37 143.756H109C100.716 143.756 94 137.041 94 128.756V54.7563C94 46.4721 100.716 39.7563 109 39.7563H130.668C138.952 39.7563 145.668 46.4721 145.668 54.7563V84.9491C145.668 85.924 146.458 86.7144 147.433 86.7144C148.315 86.7144 149.062 86.0634 149.182 85.1896L153.649 52.7125C154.67 45.2879 161.014 39.7563 168.509 39.7563H186.8C197.149 39.7563 204.389 49.9889 200.945 59.7481L191.435 86.6965C190.297 89.9223 190.295 93.4404 191.43 96.6672L200.97 123.777C204.403 133.534 197.164 143.756 186.82 143.756H167.244C160.177 143.756 154.068 138.823 152.58 131.914L149.283 116.603C149.102 115.761 148.357 115.16 147.496 115.16Z" fill="#011412"/>
<path d="M284.961 140.798L259.764 109.29V140.798H241V42H259.764V98.2083L284.693 66.8331H309.086L276.383 103.949L309.354 140.798H284.961Z" fill="#40FFE1"/>
<path d="M389.366 66.8331V140.798H370.468V131.453C368.055 134.657 364.883 137.194 360.952 139.063C357.11 140.843 352.91 141.733 348.353 141.733C342.546 141.733 337.408 140.531 332.94 138.128C328.473 135.636 324.943 132.031 322.352 127.314C319.85 122.507 318.6 116.811 318.6 110.224V66.8331H337.363V107.554C337.363 113.429 338.838 117.968 341.786 121.172C344.735 124.287 348.756 125.845 353.849 125.845C359.031 125.845 363.096 124.287 366.045 121.172C368.994 117.968 370.468 113.429 370.468 107.554V66.8331H389.366Z" fill="#40FFE1"/>
<path d="M426.643 78.3151C429.055 74.3987 432.183 71.328 436.025 69.1028C439.956 66.8776 444.424 65.765 449.428 65.765V85.3912H444.469C438.571 85.3912 434.104 86.7708 431.066 89.53C428.117 92.2892 426.643 97.0957 426.643 103.949V140.798H407.879V66.8331H426.643V78.3151Z" fill="#40FFE1"/>
<path d="M495.037 142C487.888 142 481.455 140.442 475.737 137.327C470.018 134.123 465.506 129.628 462.2 123.842C458.983 118.057 457.375 111.381 457.375 103.816C457.375 96.2501 459.028 89.5745 462.334 83.789C465.729 78.0035 470.331 73.5532 476.139 70.4379C481.947 67.2336 488.425 65.6315 495.573 65.6315C502.721 65.6315 509.199 67.2336 515.007 70.4379C520.814 73.5532 525.371 78.0035 528.677 83.789C532.073 89.5745 533.77 96.2501 533.77 103.816C533.77 111.381 532.028 118.057 528.543 123.842C525.148 129.628 520.502 134.123 514.604 137.327C508.797 140.442 502.274 142 495.037 142ZM495.037 125.712C498.432 125.712 501.604 124.911 504.552 123.308C507.59 121.617 510.003 119.125 511.79 115.832C513.577 112.538 514.47 108.533 514.47 103.816C514.47 96.7841 512.594 91.3992 508.841 87.6609C505.178 83.8335 500.666 81.9199 495.305 81.9199C489.944 81.9199 485.431 83.8335 481.768 87.6609C478.194 91.3992 476.407 96.7841 476.407 103.816C476.407 110.847 478.149 116.277 481.634 120.104C485.208 123.842 489.675 125.712 495.037 125.712Z" fill="#40FFE1"/>
<path d="M569.381 82.1869V117.968C569.381 120.46 569.961 122.285 571.123 123.442C572.374 124.51 574.429 125.044 577.288 125.044H586V140.798H574.206C558.39 140.798 550.483 133.144 550.483 117.834V82.1869H541.637V66.8331H550.483V48.542H569.381V66.8331H586V82.1869H569.381Z" fill="#40FFE1"/>
</svg>
