<svg width="823" height="697" viewBox="0 0 823 697" fill="none" xmlns="http://www.w3.org/2000/svg">
<path d="M0 200.413C0 149.809 33.4131 105.286 81.9967 91.1504L379.718 4.52956C400.476 -1.50985 422.524 -1.50985 443.282 4.52956L741.003 91.1504C789.587 105.286 823 149.809 823 200.413V583.208C823 646.054 772.059 697 709.221 697H113.779C50.9405 697 0 646.054 0 583.208V200.413Z" fill="#40FFE1"/>
<path d="M559.397 436.81C555.568 436.81 552.464 439.914 552.464 443.744V491.044C552.464 520.996 528.186 545.277 498.237 545.277H413.396C381.977 545.277 356.507 519.804 356.507 488.381V207.694C356.507 176.272 381.977 150.798 413.396 150.798H495.575C526.994 150.798 552.464 176.272 552.464 207.694V322.218C552.464 325.916 555.462 328.913 559.159 328.913C562.504 328.913 565.336 326.444 565.792 323.13L582.733 199.942C586.606 171.78 610.668 150.798 639.092 150.798H708.462C747.713 150.798 775.171 189.611 762.109 226.628L726.041 328.846C721.724 341.081 721.718 354.426 726.024 366.665L762.204 469.496C775.225 506.504 747.768 545.277 708.54 545.277H634.294C607.491 545.277 584.323 526.565 578.68 500.359L566.175 442.284C565.487 439.09 562.664 436.81 559.397 436.81Z" fill="black"/>
</svg>
